<?xml version="1.0" encoding="UTF-8" standalone="no"?>
<!-- Created with Inkscape (http://www.inkscape.org/) -->

<svg
   width="210mm"
   height="297mm"
   viewBox="0 0 210 297"
   version="1.1"
   id="svg5"
   inkscape:version="1.1.1 (3bf5ae0d25, 2021-09-20)"
   sodipodi:docname="logotype.svg"
   xmlns:inkscape="http://www.inkscape.org/namespaces/inkscape"
   xmlns:sodipodi="http://sodipodi.sourceforge.net/DTD/sodipodi-0.dtd"
   xmlns="http://www.w3.org/2000/svg"
   xmlns:svg="http://www.w3.org/2000/svg">
  <sodipodi:namedview
     id="namedview7"
     pagecolor="#ffffff"
     bordercolor="#666666"
     borderopacity="1.0"
     inkscape:pageshadow="2"
     inkscape:pageopacity="0.0"
     inkscape:pagecheckerboard="0"
     inkscape:document-units="mm"
     showgrid="false"
     inkscape:zoom="6.0007856"
     inkscape:cx="226.88696"
     inkscape:cy="325.874"
     inkscape:window-width="1920"
     inkscape:window-height="1027"
     inkscape:window-x="1912"
     inkscape:window-y="-8"
     inkscape:window-maximized="1"
     inkscape:current-layer="layer1" />
  <defs
     id="defs2">
    <inkscape:perspective
       sodipodi:type="inkscape:persp3d"
       inkscape:vp_x="0 : 148.5 : 1"
       inkscape:vp_y="0 : 1000 : 0"
       inkscape:vp_z="210 : 148.5 : 1"
       inkscape:persp3d-origin="105 : 99 : 1"
       id="perspective11915" />
  </defs>
  <g
     inkscape:label="Layer 1"
     inkscape:groupmode="layer"
     id="layer1">
    <path
       style="fill:#000000;fill-opacity:1;fill-rule:nonzero;stroke:none;stroke-width:0.275233"
       id="path972-5"
       d="m 47.30449,79.874414 c -1.086227,4.722013 -1.343296,5.997908 -1.942095,8.754348 0.630684,0.448772 1.587274,0.146108 1.753394,-0.202073 0.794994,-3.917793 1.147451,-5.735744 1.360048,-6.874493 0.51306,-2.460757 -1.034343,-2.212995 -1.171347,-1.677782 z"
       sodipodi:nodetypes="ccccc" />
    <path
       style="fill:#000000;fill-opacity:1;fill-rule:nonzero;stroke:none;stroke-width:0.335217"
       id="path972-5-6"
       d="m 63.742389,78.070847 c -1.175545,6.472329 -1.453752,8.221163 -2.101788,11.999337 0.682543,0.61512 1.71779,0.200267 1.89757,-0.276975 0.860364,-5.370009 1.241802,-7.861823 1.47188,-9.422673 0.555247,-3.372891 -1.119394,-3.033291 -1.267662,-2.299689 z"
       sodipodi:nodetypes="ccccc" />
    <path
       style="fill:#000000;fill-opacity:1;fill-rule:nonzero;stroke:none;stroke-width:0.254229"
       id="path972-54"
       d="m 58.224774,79.449238 c -0.0047,-0.535989 -0.03369,-0.660425 -0.348816,-1.113051 -1.903742,-2.026529 -4.187355,-0.448107 -5.098864,1.329507 -0.836775,1.684407 -0.513287,3.584432 0.404051,4.510067 0.836067,0.843628 2.165421,0.877869 3.559246,-0.798195 0.636498,-0.49014 2.436776,-3.665091 0.832103,-3.734083 -0.290966,0.0722 -0.637897,1.370479 -1.069851,2.049565 -1.289082,2.297768 -2.308255,1.518256 -2.336083,0.04905 0.0389,-1.379999 1.110267,-3.177653 2.142074,-2.918897 1.475667,0.440127 0.91254,1.49106 1.91614,0.626037 z"
       sodipodi:nodetypes="cccscccccc" />
    <path
       style="fill:#000000;fill-opacity:1;fill-rule:nonzero;stroke:none;stroke-width:0.254721"
       id="path972-5-9-5-0-9"
       d="m 81.681113,77.921699 c -0.562396,3.5505 -0.672527,4.507763 -0.960314,6.57832 0.603662,0.334153 1.492325,0.187036 1.983936,-0.249833 0.477112,-3.21578 0.665836,-5.555716 0.682841,-6.512061 -0.81075,-0.251193 -1.645341,-0.51578 -1.706465,0.183569 z"
       sodipodi:nodetypes="ccccc" />
    <path
       style="fill:#000000;fill-opacity:1;fill-rule:nonzero;stroke:none;stroke-width:0.17337"
       id="path972-5-9-5-6"
       d="m 69.366458,81.399004 c 0.132081,0.421678 0.69699,0.872222 1.215586,1.026775 2.62595,-0.164101 4.877207,-0.0977 4.384323,-2.85267 -0.265482,0.240404 -1.162665,-0.445666 -1.191239,0.507359 0.02348,2.106061 -3.381745,1.365676 -4.40867,1.318536 z"
       sodipodi:nodetypes="ccccc" />
    <path
       style="fill:#000000;fill-opacity:1;fill-rule:nonzero;stroke:none;stroke-width:0.264583"
       id="path972-2"
       d="m 46.648372,83.191285 c 1.890748,1.909371 4.233531,1.429385 5.200656,-0.43048 1.473612,-3.188678 -2.53978,-7.449889 -4.665217,-3.780213 -0.308625,0.476872 -0.08941,1.447764 0.996793,1.248565 0.808005,-1.630076 1.709776,-1.802207 2.119417,-0.390942 0.316737,1.34382 -0.338484,3.380682 -1.484928,3.420208 -1.657765,-0.01114 -1.340844,-1.184186 -2.166716,-0.06714 z"
       sodipodi:nodetypes="cccccccc" />
    <path
       style="fill:#000000;fill-opacity:1;fill-rule:nonzero;stroke:none;stroke-width:0.264583"
       id="path972-2-8"
       d="m 63.510364,83.155646 c 1.890748,1.909371 4.233531,1.429385 5.200656,-0.43048 1.473612,-3.188678 -2.53978,-7.449889 -4.665217,-3.780213 -0.308625,0.476872 -0.08941,1.447764 0.996793,1.248565 0.808005,-1.630076 1.709776,-1.802207 2.119417,-0.390942 0.316737,1.34382 -0.338484,3.380682 -1.484928,3.420208 -1.657765,-0.01114 -1.340844,-1.184186 -2.166716,-0.06714 z"
       sodipodi:nodetypes="cccccccc" />
    <path
       style="fill:#000000;fill-opacity:1;fill-rule:nonzero;stroke:none;stroke-width:0.264583"
       id="path972-2-8-8"
       d="m 64.619525,78.748155 c -1.890748,-1.909371 -4.233531,-1.429385 -5.200656,0.43048 -1.473612,3.188678 2.53978,7.449889 4.665217,3.780213 0.308625,-0.476872 0.08941,-1.447764 -0.996793,-1.248565 -0.808005,1.630076 -1.709776,1.802207 -2.119417,0.390942 -0.316737,-1.34382 0.338484,-3.380682 1.484928,-3.420208 1.657765,0.01114 1.340844,1.184186 2.166716,0.06714 z"
       sodipodi:nodetypes="cccccccc" />
    <path
       style="fill:#000000;fill-opacity:1;fill-rule:nonzero;stroke:none;stroke-width:0.264583"
       id="path972-2-14"
       d="m 28.352514,84.382632 c 1.617076,2.146087 4.003105,1.985213 5.21134,0.272146 1.161581,-2.155371 0.972309,-4.352911 0.846918,-6.928244 -0.474957,-0.131421 -1.025162,-0.286194 -1.87372,0.655576 0.5005,3.613063 -0.02439,6.429804 -2.046481,6.358156 -1.641239,-0.233764 -1.169589,-1.353595 -2.138052,-0.357635 z"
       sodipodi:nodetypes="ccccccc" />
    <path
       style="fill:#000000;fill-opacity:1;fill-rule:nonzero;stroke:none;stroke-width:0.264583"
       id="path972-2-1"
       d="m 74.337292,83.62249 c -1.420991,1.017837 -2.714326,1.091829 -3.986818,0.316658 -4.283593,-3.562947 3.279264,-9.084948 4.612045,-4.379932 0.177177,0.518648 -1.074577,1.842894 -1.115122,1.29741 -0.042,-2.590889 -1.438837,-2.453239 -2.237489,-1.230284 -0.687157,1.181798 -0.593392,3.240768 0.542157,3.548041 1.660836,0.380461 1.667262,-0.79107 2.185223,0.448104 z"
       sodipodi:nodetypes="cccccccc" />
    <path
       style="fill:#000000;fill-opacity:1;fill-rule:nonzero;stroke:none;stroke-width:0.321078"
       id="path38239"
       d="m 84.578906,78.191973 c -0.0616,4.214194 -2.010575,2.565323 -2.196532,3.751152 3.072103,0.272921 4.361652,-1.836092 4.323484,-4.917272 -0.803462,-0.107789 -1.906262,0.119281 -2.126952,1.16612 z"
       sodipodi:nodetypes="cccc" />
    <path
       style="fill:#000000;fill-opacity:1;fill-rule:nonzero;stroke:none;stroke-width:0.29355"
       id="path38239-1"
       d="m 58.827223,81.144423 c -1.660518,3.937051 0.592232,2.781439 0.26198,3.92217 -2.60674,-0.344978 -2.798387,-2.56079 -1.516709,-5.42311 0.696534,0.05631 1.500344,0.482887 1.254729,1.50094 z"
       sodipodi:nodetypes="cccc" />
    <path
       style="fill:#000000;fill-opacity:1;fill-rule:nonzero;stroke:none;stroke-width:0.254229"
       id="path972-54-7"
       d="m 45.524772,79.449238 c -0.0047,-0.535989 -0.03369,-0.660425 -0.348816,-1.113051 -1.903742,-2.026529 -4.187355,-0.448107 -5.098864,1.329507 -0.836775,1.684407 -0.513287,3.584432 0.404051,4.510067 0.836067,0.843628 2.165421,0.877869 3.559246,-0.798195 0.636498,-0.49014 2.436776,-3.665091 0.832103,-3.734083 -0.290966,0.0722 -0.637897,1.370479 -1.069851,2.049565 -1.289082,2.297768 -2.308255,1.518256 -2.336083,0.04905 0.0389,-1.379999 1.110267,-3.177653 2.142074,-2.918897 1.475667,0.440127 0.91254,1.49106 1.91614,0.626037 z"
       sodipodi:nodetypes="cccscccccc" />
    <path
       style="fill:#000000;fill-opacity:1;fill-rule:nonzero;stroke:none;stroke-width:0.29355"
       id="path38239-1-9"
       d="m 46.127221,81.144423 c -1.660518,3.937051 0.592232,2.781439 0.26198,3.92217 -2.60674,-0.344978 -2.798387,-2.56079 -1.516709,-5.42311 0.696534,0.05631 1.500344,0.482887 1.254729,1.50094 z"
       sodipodi:nodetypes="cccc" />
  </g>
</svg>
