<?xml version="1.0" encoding="utf-8"?>
<!DOCTYPE svg PUBLIC "-//W3C//DTD SVG 1.1//EN" "http://www.w3.org/Graphics/SVG/1.1/DTD/svg11.dtd">
<svg version="1.1" id="_x33__1_" xmlns="http://www.w3.org/2000/svg" xmlns:xlink="http://www.w3.org/1999/xlink" x="0px" y="0px" width="60px" height="60px" viewBox="0 0 60 60" xml:space="preserve">
    <path fill="#777777" d="M30,10c-11.046,0-20,8.954-20,20c0,11.047,8.954,20,20,20
			c11.047,0,20-8.953,20-20C50,18.954,41.047,10,30,10z M30,46c-8.837,0-16-7.164-16-16c0-8.837,7.163-16,16-16
			c8.836,0,16,7.163,16,16C46,38.836,38.836,46,30,46z M24,28c1.104,0,2-0.896,2-2s-0.896-2-2-2s-2,0.896-2,2S22.896,28,24,28z
			 M36,24c-1.105,0-2,0.896-2,2s0.895,2,2,2s2-0.896,2-2S37.105,24,36,24z M22.588,36.759c-0.006,0.006-0.012,0.011-0.019,0.017
			c-0.819,0.744-0.819,1.955,0,2.699s2.148,0.744,2.967,0c2.448-2.224,6.415-2.224,8.862,0c0.818,0.744,2.148,0.744,2.967,0
			s0.818-1.955,0-2.699C33.289,33.059,26.673,33.052,22.588,36.759z" />
</svg>
