<?xml version="1.0" encoding="utf-8"?>
<!DOCTYPE svg PUBLIC "-//W3C//DTD SVG 1.1//EN" "http://www.w3.org/Graphics/SVG/1.1/DTD/svg11.dtd">
<svg version="1.1" id="_x31__1_" xmlns="http://www.w3.org/2000/svg" xmlns:xlink="http://www.w3.org/1999/xlink" x="0px" y="0px" width="60px" height="60px" viewBox="0 0 60 60" xml:space="preserve">
    <path fill="#777777" d="M36,24c-1.105,0-2,0.896-2,2s0.895,2,2,2s2-0.896,2-2
			S37.105,24,36,24z M24,28c1.104,0,2-0.896,2-2s-0.896-2-2-2s-2,0.896-2,2S22.896,28,24,28z M30,10c-11.046,0-20,8.954-20,20
			c0,11.047,8.954,20,20,20c11.047,0,20-8.953,20-20C50,18.954,41.047,10,30,10z M30,46c-8.837,0-16-7.164-16-16
			c0-8.837,7.163-16,16-16c8.836,0,16,7.163,16,16C46,38.836,38.836,46,30,46z M34.24,34.24c-2.342,2.34-6.138,2.34-8.48,0
			c-0.784-0.783-2.056-0.783-2.84,0s-0.784,2.057,0,2.84l0.018,0.018c3.91,3.9,10.242,3.893,14.143-0.018
			c0.783-0.783,0.783-2.057,0-2.84S35.023,33.457,34.24,34.24z" />
</svg>
